<svg xmlns="http://www.w3.org/2000/svg" viewBox="0 0 800 1000" width="800" height="1000" preserveAspectRatio="xMidYMid slice" aria-hidden="true">
  <defs>
    <linearGradient id="t4bg" x1="50%" y1="0%" x2="50%" y2="100%">
      <stop offset="0%" stop-color="#eff4f0"/><stop offset="100%" stop-color="#f8fbf9"/>
    </linearGradient>
    <linearGradient id="t4mass" x1="50%" y1="0%" x2="50%" y2="100%">
      <stop offset="0%" stop-color="#e9f3eb"/><stop offset="100%" stop-color="#c4d7c8"/>
    </linearGradient>
    <clipPath id="t4clip"><rect x="29" y="29" width="742" height="942"/></clipPath>
  </defs>
  <rect width="800" height="1000" fill="url(#t4bg)"/>
  <g clip-path="url(#t4clip)">
    <line x1="400" y1="60" x2="400" y2="940" stroke="#d2d9d3" stroke-width="1"/>
    <rect x="86" y="596" width="52" height="204" rx="0" fill="#f8fbf9" stroke="#3d714c" stroke-width="1.5"/>
    <rect x="182" y="504" width="52" height="296" rx="0" fill="#f8fbf9" stroke="#3d714c" stroke-width="1.5"/>
    <rect x="278" y="412" width="52" height="388" rx="0" fill="#f8fbf9" stroke="#3d714c" stroke-width="1.5"/>
    <rect x="374" y="320" width="52" height="480" rx="0" fill="url(#t4mass)" stroke="#3d714c" stroke-width="1.5"/>
    <rect x="470" y="412" width="52" height="388" rx="0" fill="#f8fbf9" stroke="#3d714c" stroke-width="1.5"/>
    <rect x="566" y="504" width="52" height="296" rx="0" fill="#f8fbf9" stroke="#3d714c" stroke-width="1.5"/>
    <rect x="662" y="596" width="52" height="204" rx="0" fill="#f8fbf9" stroke="#3d714c" stroke-width="1.5"/>
    <line x1="80" y1="800" x2="720" y2="800" stroke="#18211a" stroke-width="1.5"/>
    <circle cx="400" cy="250" r="13" fill="#3d714c" stroke="none" stroke-width="1"/>
  </g>
    <rect x="28.5" y="28.5" width="743" height="943" rx="0" fill="none" stroke="#d2d9d3" stroke-width="1"/>
</svg>
